<svg width="221" height="184" viewBox="0 0 221 184" fill="none" xmlns="http://www.w3.org/2000/svg">
<mask id="mask0" mask-type="alpha" maskUnits="userSpaceOnUse" x="0" y="0" width="221" height="184">
<rect width="221" height="183.114" fill="#C4C4C4"/>
</mask>
<g mask="url(#mask0)">
<path d="M76.8699 113.493C73.3105 113.385 62.7494 110.015 60.6499 108.46Z" fill="#EB8682"/>
<path d="M78.3346 130.104C84.9017 139.302 106.136 142.032 109.758 143.347C115.701 145.599 116.711 151.687 116.799 155.003C117.053 164.452 118.161 180.66 114.846 189.225" fill="#EB8682"/>
<path d="M78.3346 130.104C74.3505 122.922 76.8699 113.493 76.8699 113.493C76.8699 113.493 84.5892 113.861 87.6848 112.277C93.6367 109.711 100.707 100.326 100.633 86.8895C100.465 74.7892 97.9211 62.8412 93.1484 51.7303C88.842 40.5404 62.1196 30.0814 41.9887 49.6257C41.9887 49.6257 31.1347 59.5941 37.4381 76.1607" fill="#EB8682"/>
<path d="M6.15983 189.225C3.29376 179.998 4.42163 155.734 4.83665 152.31C5.25167 148.886 6.85316 141.939 15.3342 139.825C19.084 138.878 42.5648 135.064 47.3302 128.446" fill="#EB8682"/>
<path d="M48.4825 103.427C48.4825 103.427 40.5971 98.9281 37.4527 89.5484C34.3083 80.1687 37.4381 76.1607 37.4381 76.1607C39.9624 72.3784 50.0059 71.4512 50.0059 82.8619" fill="#EB8682"/>
<path d="M48.4825 103.427C49.083 115.348 49.2344 120.817 47.3302 128.446Z" fill="#EB8682"/>
<path d="M78.3346 130.104C84.9017 139.302 106.136 142.032 109.758 143.347C115.701 145.599 116.711 151.687 116.799 155.003C117.053 164.452 118.161 180.66 114.846 189.225H6.15983C3.29376 179.998 4.42163 155.734 4.83665 152.31C5.25167 148.886 6.85316 141.939 15.3342 139.825C19.084 138.878 42.5648 135.064 47.3302 128.446C49.2344 120.817 49.083 115.348 48.4825 103.427C48.4825 103.427 40.5971 98.9281 37.4527 89.5484C34.3083 80.1687 37.4381 76.1607 37.4381 76.1607C31.1347 59.5941 41.9887 49.6257 41.9887 49.6257C62.1196 30.0814 88.842 40.5404 93.1484 51.7303C97.9211 62.8412 100.465 74.7892 100.633 86.8895C100.707 100.326 93.6367 109.711 87.6848 112.277C84.5892 113.861 76.8699 113.493 76.8699 113.493C76.8699 113.493 74.3505 122.922 78.3346 130.104Z" fill="#EB8682"/>
<path opacity="0.4" d="M76.7575 113.115C76.2847 116.454 75.5523 121.36 76.7575 125.284C72.2899 124.22 59.6782 115.46 59.6782 108.347C65.1963 110.512 70.9186 112.11 76.7575 113.115Z" fill="#050504"/>
<path d="M43.1931 78.9254C41.2889 79.4454 39.9902 82.3349 41.5038 85.45" stroke="#050504" stroke-width="1.25408" stroke-linecap="round"/>
<path d="M4.41234 147.895C3.99536 151.319 2.86215 175.583 5.7418 184.81H114.943C118.274 176.245 117.16 160.037 116.905 150.588C116.817 147.272 115.801 141.184 109.831 138.932C106.498 137.728 89.4443 135.587 80.6141 128.473L63.1988 136.813L44.8024 126.511C36.867 131.443 18.2078 134.594 14.9596 135.41C6.4384 137.524 4.82933 144.471 4.41234 147.895Z" fill="#6F86FF" stroke="#050504" stroke-width="1.25408" stroke-linecap="round" stroke-linejoin="round"/>
<path d="M55.9133 136.244C47.5736 133.953 45.008 130.18 43.0162 127.276C43.6981 124.254 44.0664 120.133 47.7456 118.416C41.3682 121.85 47.7404 124.2 59.3719 126.609L55.9133 136.244Z" fill="#E5ECF9"/>
<path d="M71.7441 135.027C80.0838 132.736 79.6373 131.397 80.7853 129.886C80.7853 126.28 80.5204 121.468 76.8901 120.04C82.2521 122.807 79.1615 125.24 67.7704 126.609L71.7441 135.027Z" fill="#E5ECF9"/>
<path d="M55.9133 136.244C47.5736 133.953 45.008 130.18 43.0162 127.276C43.6981 124.254 44.0664 120.133 47.7456 118.416C41.3682 121.85 47.7404 124.2 59.3719 126.609L55.9133 136.244Z" stroke="#050504" stroke-width="1.25408" stroke-linecap="round" stroke-linejoin="round"/>
<path d="M71.7441 135.027C80.0838 132.736 79.6373 131.397 80.7853 129.886C80.7853 126.28 80.5204 121.468 76.8901 120.04C82.2521 122.807 79.1615 125.24 67.7704 126.609L71.7441 135.027Z" stroke="#050504" stroke-width="1.25408" stroke-linecap="round" stroke-linejoin="round"/>
<path d="M49.2172 123.322L48.4814 118.171C47.2465 118.264 45.0474 119.769 45.0474 121.114C45.0474 122.46 48.0647 123.229 49.2172 123.322Z" fill="#050504"/>
<path d="M75.2175 124.794L76.1986 120.133C77.4335 120.227 79.3873 120.995 79.3873 122.341C79.3873 123.686 76.37 124.7 75.2175 124.794Z" fill="#050504"/>
<g opacity="0.2">
<path d="M66.878 126.511L71.0478 133.34L67.1919 134.983L64.8764 135.92L66.878 126.511Z" fill="#050504"/>
<path d="M60.2553 126.511L62.2176 135.832L58.4304 134.066L56.6398 133.085L60.2553 126.511Z" fill="#050504"/>
</g>
<path d="M57.4133 91.8456C54.9239 87.1282 54.9336 86.1867 53.5388 81.0466C52.8802 78.5918 52.0326 76.1899 52.391 73.5719C53.1756 67.8409 56.0475 63.5223 61.4427 60.885C65.6949 58.8001 70.2668 57.7913 74.9694 57.2581C79.4559 56.6812 84.0134 56.9981 88.375 58.1901C90.5495 58.8097 92.6708 59.6312 94.8211 60.3037C95.7025 60.592 96.7051 60.8706 97.4509 60.1836C99.0346 58.7185 99.7998 54.03 100.357 51.8394C101.548 47.7706 102.187 43.9131 100.681 40.3679C99.6351 37.8987 97.8964 36.0445 95.0778 35.4344C92.7965 34.8701 90.4019 34.9466 88.1619 35.6554C87.542 35.8571 87.3144 35.6554 87.1933 35.1125C86.9994 34.2382 86.643 33.4074 86.1423 32.6626C82.51 26.9557 74.3204 25.6058 68.9398 29.8668C68.2617 30.4 68.0535 30.3087 67.6128 29.6266C66.9752 28.5889 66.1122 27.7054 65.0867 27.0406C64.0611 26.3757 62.899 25.9463 61.6849 25.7835C59.3718 25.4384 57.0183 25.4562 54.7108 25.8364C50.1923 26.5521 46.8602 28.6466 45.509 33.0949C45.495 33.2122 45.4563 33.3252 45.3954 33.4266C45.3344 33.528 45.2526 33.6156 45.1553 33.6835C45.058 33.7515 44.9473 33.7984 44.8305 33.8211C44.7137 33.8439 44.5934 33.842 44.4774 33.8155C42.9291 33.6889 41.3723 33.9208 39.9298 34.4928C33.1979 37.2406 28.6261 41.7994 27.1925 48.9043C26.6114 51.7866 26.5581 54.6689 27.9916 57.3686C28.3355 58.0267 28.1805 58.2525 27.5654 58.5936C20.882 62.2829 17.7485 70.1804 20.233 77.069C21.4632 80.4845 24.5385 83.7944 29.2266 83.7079C29.8417 83.7079 29.9676 84.0202 30.1468 84.4765C31.4011 87.7431 30.4325 94.896 32.0404 98.0329C34.152 102.14 34.9463 103.341 38.0846 106.742C39.3825 108.159 40.8258 108.832 43.1601 108.227C45.0005 107.266 46.7682 106.564 47.9112 105.128C48.226 104.672 48.2208 104.113 48.2014 103.359C47.3409 102.81 46.7965 102.341 46.022 101.678C43.46 99.7562 39.7506 95.3319 38.0846 91.1093C36.9513 88.6498 35.2659 82.1659 36.2345 78.9714C37.2564 75.6087 38.8982 74.2972 40.1719 73.8841C41.2879 73.4491 42.4812 73.2427 43.6798 73.2774C44.8783 73.312 46.0574 73.5871 47.146 74.0859C49.4852 75.527 49.7273 76.5118 50.7201 79.3701C51.8728 85.7303 52.0472 90.2459 53.4371 96.3323C54.0522 99.0321 54.7205 101.737 54.9385 104.499C55.0595 106.055 55.8247 106.833 57.0549 107.52C58.963 108.584 60.9148 109.568 62.9101 110.475C67.4481 112.555 72.1507 114.078 77.2214 114.058C81.8998 114.058 86.5782 114.145 91.2663 114.241C92.5545 114.241 93.838 114.241 95.1408 114.241C95.8151 114.276 96.4828 114.093 97.0435 113.72C97.6042 113.347 98.0276 112.803 98.25 112.171C98.5823 111.342 98.8353 110.485 99.0055 109.61C99.7804 105.94 100.546 102.268 101.301 98.5949C101.761 96.3804 102.231 91.8696 101.814 89.6022C101.764 89.2323 101.581 88.8927 101.299 88.6451C101.017 88.3974 100.656 88.2581 100.279 88.2523C99.3349 88.1418 98.7488 88.7327 98.158 89.2707C96.2208 91.101 94.2593 92.9408 91.8232 94.1994C88.4622 95.9384 84.825 96.7983 81.1152 97.3604C69.9229 98.47 62.3871 97.5381 57.4133 91.8456Z" fill="#050504"/>
<path d="M79.3671 78.0079C79.3671 78.3542 79.6478 78.6349 79.9941 78.6349C80.3404 78.6349 80.6211 78.3542 80.6211 78.0079H79.3671ZM86.9204 77.1984C86.9204 77.5448 87.2012 77.8255 87.5475 77.8255C87.8938 77.8255 88.1745 77.5448 88.1745 77.1984H86.9204ZM64.9673 78.2085C65.2975 78.3127 65.6497 78.1294 65.7539 77.7992C65.8581 77.4689 65.6748 77.1167 65.3446 77.0125L64.9673 78.2085ZM38.8681 73.7694L39.1374 74.3356C39.1441 74.3324 39.1508 74.3291 39.1575 74.3256L38.8681 73.7694ZM34.3455 81.5712C34.4088 81.9117 34.7361 82.1364 35.0766 82.0731C35.4171 82.0098 35.6418 81.6825 35.5785 81.342L34.3455 81.5712ZM79.3671 77.6105C79.3671 82.0918 76.2446 85.5636 72.5774 85.5636V86.8177C77.1025 86.8177 80.6211 82.6066 80.6211 77.6105H79.3671ZM72.5774 85.5636C68.9103 85.5636 65.7878 82.0918 65.7878 77.6105H64.5338C64.5338 82.6066 68.0524 86.8177 72.5774 86.8177V85.5636ZM65.7878 77.6105C65.7878 73.1293 68.9103 69.6575 72.5774 69.6575V68.4034C68.0524 68.4034 64.5338 72.6145 64.5338 77.6105H65.7878ZM72.5774 69.6575C76.2446 69.6575 79.3671 73.1293 79.3671 77.6105H80.6211C80.6211 72.6145 77.1025 68.4034 72.5774 68.4034V69.6575ZM101.685 75.9524C101.685 80.4336 98.5629 83.9054 94.8958 83.9054V85.1595C99.4208 85.1595 102.939 80.9485 102.939 75.9524H101.685ZM94.8958 83.9054C91.2286 83.9054 88.1061 80.4336 88.1061 75.9524H86.8521C86.8521 80.9485 90.3707 85.1595 94.8958 85.1595V83.9054ZM88.1061 75.9524C88.1061 71.4712 91.2286 67.9994 94.8958 67.9994V66.7453C90.3707 66.7453 86.8521 70.9563 86.8521 75.9524H88.1061ZM94.8958 67.9994C98.5629 67.9994 101.685 71.4712 101.685 75.9524H102.939C102.939 70.9563 99.4208 66.7453 94.8958 66.7453V67.9994ZM80.6211 78.0079C80.6211 77.4198 80.9308 76.9464 81.5108 76.5776C82.1047 76.1999 82.9373 75.9696 83.8088 75.9166C84.6809 75.8637 85.5173 75.9929 86.1087 76.2605C86.7047 76.5302 86.9204 76.8647 86.9204 77.1984H88.1745C88.1745 76.1659 87.4461 75.4892 86.6258 75.118C85.8009 74.7447 84.749 74.6032 83.7328 74.6649C82.7159 74.7266 81.6602 74.9964 80.8378 75.5193C80.0016 76.0511 79.3671 76.879 79.3671 78.0079H80.6211ZM65.1559 77.6105C65.3446 77.0125 65.3444 77.0125 65.3442 77.0124C65.344 77.0124 65.3438 77.0123 65.3434 77.0122C65.3427 77.0119 65.3417 77.0116 65.3403 77.0112C65.3376 77.0104 65.3337 77.0091 65.3285 77.0075C65.318 77.0042 65.3027 76.9994 65.2824 76.9931C65.242 76.9805 65.1821 76.9619 65.104 76.9378C64.9479 76.8896 64.7187 76.8195 64.4254 76.7313C63.8388 76.555 62.9956 76.3064 61.9675 76.017C59.9119 75.4383 57.1132 74.695 54.145 74.0383C51.1801 73.3823 48.0299 72.809 45.2758 72.5754C43.8989 72.4586 42.6067 72.4255 41.4783 72.5135C40.3592 72.6007 39.3526 72.8104 38.5786 73.2131L39.1575 74.3256C39.7153 74.0354 40.529 73.8454 41.5758 73.7638C42.6133 73.6829 43.8326 73.7116 45.1698 73.825C47.8441 74.0518 50.9329 74.612 53.8741 75.2628C56.812 75.9128 59.5865 76.6495 61.6276 77.2242C62.6478 77.5114 63.4838 77.7578 64.0644 77.9323C64.3546 78.0195 64.5809 78.0888 64.7344 78.1361C64.8111 78.1598 64.8696 78.178 64.9088 78.1902C64.9284 78.1963 64.9432 78.201 64.953 78.204C64.9579 78.2056 64.9615 78.2067 64.9639 78.2075C64.9651 78.2078 64.966 78.2081 64.9665 78.2083C64.9668 78.2084 64.967 78.2084 64.9671 78.2085C64.9672 78.2085 64.9673 78.2085 65.1559 77.6105ZM38.5988 73.2031C37.0686 73.9308 35.822 75.1467 35.0528 76.6605L36.1708 77.2285C36.8149 75.961 37.8582 74.944 39.1374 74.3356L38.5988 73.2031ZM35.0528 76.6605C34.2837 78.1742 34.035 79.9009 34.3455 81.5712L35.5785 81.342C35.3184 79.9426 35.5267 78.4961 36.1708 77.2285L35.0528 76.6605Z" fill="white"/>
<path d="M84.5581 80.1748C84.4192 79.8576 84.0494 79.7131 83.7322 79.852C83.415 79.991 83.2705 80.3608 83.4094 80.678L84.5581 80.1748ZM84.9192 92.8884C84.6031 93.0298 84.4614 93.4006 84.6027 93.7168C84.7441 94.0329 85.1149 94.1746 85.4311 94.0333L84.9192 92.8884ZM61.938 69.4015C61.7149 69.6664 61.7488 70.0619 62.0136 70.2851C62.2785 70.5082 62.6741 70.4743 62.8972 70.2095L61.938 69.4015ZM73.1056 65.1941L73.2114 64.576L73.207 64.5753L73.1056 65.1941ZM74.4937 66.2136C74.8183 66.3342 75.1792 66.1688 75.2998 65.8441C75.4203 65.5195 75.2549 65.1586 74.9302 65.038L74.4937 66.2136ZM85.7382 66.2769C85.4828 66.5108 85.4653 66.9074 85.6991 67.1628C85.933 67.4183 86.3296 67.4358 86.585 67.2019L85.7382 66.2769ZM96.044 64.419L96.3077 63.8502L96.307 63.8498L96.044 64.419ZM96.9505 65.6898C97.227 65.8984 97.6201 65.8433 97.8287 65.5668C98.0372 65.2904 97.9822 64.8972 97.7057 64.6886L96.9505 65.6898ZM83.9838 80.4264C83.4094 80.678 83.4094 80.678 83.4095 80.6781C83.4095 80.6781 83.4095 80.6782 83.4096 80.6784C83.4097 80.6786 83.4099 80.6791 83.4102 80.6796C83.4106 80.6807 83.4114 80.6824 83.4124 80.6847C83.4143 80.6892 83.4173 80.696 83.4212 80.7049C83.429 80.7228 83.4407 80.7494 83.4559 80.7842C83.4862 80.8538 83.5308 80.9562 83.5876 81.0869C83.7012 81.3484 83.8636 81.7233 84.0585 82.1767C84.4483 83.0836 84.9677 84.3036 85.4869 85.5573C86.0066 86.8121 86.5239 88.0956 86.9104 89.131C87.104 89.6495 87.2622 90.0988 87.3711 90.448C87.4256 90.6229 87.4656 90.7657 87.4914 90.8756C87.52 90.9975 87.5216 91.0401 87.5216 91.0325H88.7757C88.7757 90.8875 88.7447 90.7271 88.7123 90.5891C88.6771 90.4389 88.6276 90.2648 88.5683 90.0746C88.4494 89.6935 88.2822 89.2198 88.0853 88.6924C87.691 87.6362 87.1671 86.3368 86.6455 85.0775C86.1235 83.8169 85.6017 82.5915 85.2106 81.6815C85.015 81.2264 84.852 80.8499 84.7378 80.5872C84.6808 80.4558 84.6359 80.3528 84.6053 80.2826C84.5899 80.2475 84.5782 80.2206 84.5702 80.2025C84.5663 80.1934 84.5633 80.1865 84.5612 80.1819C84.5602 80.1795 84.5594 80.1778 84.5589 80.1766C84.5587 80.176 84.5585 80.1756 84.5583 80.1753C84.5583 80.1751 84.5582 80.175 84.5582 80.1749C84.5581 80.1748 84.5581 80.1748 83.9838 80.4264ZM87.5216 91.0325C87.5216 91.0279 87.5226 91.0609 87.4772 91.14C87.432 91.2187 87.3553 91.3173 87.2403 91.4325C87.0091 91.6641 86.6817 91.9045 86.3269 92.1287C85.9769 92.3499 85.6235 92.5407 85.3554 92.6771C85.2221 92.7449 85.1113 92.7985 85.0346 92.8349C84.9962 92.853 84.9665 92.8668 84.9468 92.8759C84.9369 92.8804 84.9295 92.8837 84.9249 92.8859C84.9226 92.8869 84.9209 92.8877 84.92 92.8881C84.9195 92.8883 84.9192 92.8884 84.919 92.8885C84.919 92.8885 84.919 92.8885 84.919 92.8885C84.919 92.8885 84.9191 92.8885 84.9191 92.8885C84.9191 92.8885 84.9192 92.8884 85.1751 93.4609C85.4311 94.0333 85.4312 94.0332 85.4313 94.0332C85.4313 94.0332 85.4314 94.0331 85.4315 94.0331C85.4318 94.033 85.432 94.0329 85.4323 94.0327C85.4329 94.0325 85.4337 94.0321 85.4346 94.0317C85.4365 94.0308 85.4391 94.0297 85.4424 94.0282C85.449 94.0252 85.4584 94.0209 85.4703 94.0154C85.4941 94.0045 85.5283 93.9886 85.5712 93.9683C85.6571 93.9276 85.7787 93.8688 85.924 93.7948C86.2135 93.6476 86.6035 93.4374 86.9968 93.1888C87.3854 92.9433 87.8015 92.6453 88.1277 92.3186C88.4287 92.0172 88.7757 91.5717 88.7757 91.0325H87.5216ZM62.8972 70.2095C65.5928 67.0094 69.474 65.2346 73.0042 65.8129L73.207 64.5753C69.1302 63.9075 64.8378 65.9592 61.938 69.4015L62.8972 70.2095ZM72.9998 65.8122C73.509 65.8993 74.0091 66.0337 74.4937 66.2136L74.9302 65.038C74.3728 64.831 73.7973 64.6763 73.2113 64.5761L72.9998 65.8122ZM86.585 67.2019C89.4355 64.5924 92.9738 63.6909 95.7809 64.9882L96.307 63.8498C92.8937 62.2724 88.825 63.451 85.7382 66.2769L86.585 67.2019ZM95.7802 64.9879C96.1938 65.1797 96.5861 65.415 96.9505 65.6898L97.7057 64.6886C97.2705 64.3604 96.8019 64.0793 96.3077 63.8502L95.7802 64.9879Z" fill="#050504"/>
<path d="M75.6002 99.0938C77.0561 102.499 82.0934 103.317 84.3889 102.931" stroke="white" stroke-width="1.25408" stroke-miterlimit="10" stroke-linecap="round"/>
<path d="M72.9047 82.4771C74.4255 82.4771 75.6584 80.7859 75.6584 78.6997C75.6584 76.6135 74.4255 74.9223 72.9047 74.9223C71.3838 74.9223 70.1509 76.6135 70.1509 78.6997C70.1509 80.7859 71.3838 82.4771 72.9047 82.4771Z" fill="#050504"/>
<path d="M74.716 77.336C73.9787 74.5299 70.2924 74.0933 67.6265 76.4285" stroke="#050504" stroke-width="1.25408" stroke-linecap="round"/>
<path d="M94.4468 81.1134C95.9676 81.1134 97.2005 79.4222 97.2005 77.336C97.2005 75.2499 95.9676 73.5587 94.4468 73.5587C92.9259 73.5587 91.693 75.2499 91.693 77.336C91.693 79.4222 92.9259 81.1134 94.4468 81.1134Z" fill="#050504"/>
<path d="M96.258 75.9722C95.5207 73.1661 91.8343 72.7295 89.1685 75.0646" stroke="#050504" stroke-width="1.25408" stroke-linecap="round"/>
<path d="M179.744 128.974C176.443 128.874 166.649 125.748 164.702 124.306Z" fill="#A2BFF8"/>
<path d="M181.103 144.379C187.193 152.91 206.886 155.442 210.246 156.661C215.757 158.75 216.694 164.396 216.776 167.471C217.011 176.234 218.039 191.266 214.964 199.21" fill="#A2BFF8"/>
<path d="M181.103 144.379C177.408 137.719 179.744 128.974 179.744 128.974C179.744 128.974 186.904 129.315 189.774 127.846C195.294 125.466 201.851 116.763 201.783 104.301C201.627 93.0794 199.268 81.9986 194.841 71.6941C190.848 61.3164 166.065 51.6165 147.395 69.7423C147.395 69.7423 137.329 78.9872 143.175 94.3514" fill="#A2BFF8"/>
<path d="M114.167 199.21C111.509 190.652 112.555 168.149 112.939 164.974C113.324 161.798 114.81 155.356 122.675 153.395C126.153 152.517 147.929 148.979 152.349 142.842" fill="#A2BFF8"/>
<path d="M153.417 119.638C153.417 119.638 146.104 115.466 143.188 106.767C140.272 98.0684 143.175 94.3514 143.175 94.3514C145.516 90.8436 154.83 89.9837 154.83 100.566" fill="#A2BFF8"/>
<path d="M153.417 119.638C153.974 130.694 154.115 135.767 152.349 142.842Z" fill="#A2BFF8"/>
<path d="M181.103 144.379C187.193 152.91 206.886 155.442 210.246 156.661C215.757 158.75 216.694 164.396 216.776 167.471C217.011 176.234 218.039 191.266 214.964 199.21H114.167C111.509 190.652 112.555 168.149 112.939 164.974C113.324 161.798 114.81 155.356 122.675 153.395C126.153 152.517 147.929 148.979 152.349 142.842C154.115 135.767 153.974 130.694 153.417 119.638C153.417 119.638 146.104 115.466 143.188 106.767C140.272 98.0684 143.175 94.3514 143.175 94.3514C137.329 78.9872 147.395 69.7423 147.395 69.7423C166.065 51.6165 190.848 61.3164 194.841 71.6941C199.268 81.9986 201.627 93.0794 201.783 104.301C201.851 116.763 195.294 125.466 189.774 127.846C186.904 129.315 179.744 128.974 179.744 128.974C179.744 128.974 177.408 137.719 181.103 144.379Z" fill="#A2BFF8"/>
<path opacity="0.4" d="M179.64 128.624C179.202 131.72 178.523 136.27 179.64 139.91C175.497 138.922 163.801 130.799 163.801 124.202C168.918 126.21 174.225 127.692 179.64 128.624Z" fill="#050504"/>
<path d="M148.512 96.9154C146.746 97.3977 145.541 100.077 146.945 102.966" stroke="#050504" stroke-width="1.16305" stroke-linecap="round"/>
<path d="M112.091 161.561C111.704 164.737 110.653 187.24 113.324 195.798H214.599C217.688 187.854 216.655 172.822 216.418 164.059C216.337 160.984 215.395 155.338 209.858 153.249C206.767 152.133 190.494 150.421 182.989 143.549C182.989 143.549 183.217 148.326 165.928 148.326C148.639 148.326 148.824 142.275 148.824 142.275C141.465 146.849 124.885 149.226 121.872 149.983C113.97 151.943 112.477 158.386 112.091 161.561Z" fill="#F1CF73" stroke="#050504" stroke-width="1.16305" stroke-linecap="round" stroke-linejoin="round"/>
<path d="M182.839 143.809C182.839 145.904 178.074 148.216 171.442 149.081C169.721 149.305 167.873 149.432 165.951 149.432C165.478 149.432 165.008 149.423 164.542 149.406C155.834 149.082 148.639 145.827 148.639 143.322" fill="#F9EFE4"/>
<path d="M149.063 134.814C149.067 134.862 149.071 134.911 149.076 134.959C149.319 137.805 148.906 140.469 148.639 143.322" fill="#F9EFE4"/>
<path d="M182.839 134.814C182.835 134.863 182.83 134.912 182.826 134.962C182.575 137.768 182.58 141.019 182.839 143.809" fill="#F9EFE4"/>
<path d="M151.824 136.824C152.095 139.725 151.764 143.353 151.493 146.254Z" fill="#F9EFE4"/>
<path d="M164.54 138.481C164.811 142.118 164.811 145.769 164.542 149.406C164.542 149.413 164.541 149.42 164.54 149.428" fill="#F9EFE4"/>
<path d="M154.863 137.58C155.118 140.428 154.845 145.021 154.554 147.574Z" fill="#F9EFE4"/>
<path d="M157.966 138.046C158.221 140.894 157.793 145.885 157.511 148.437Z" fill="#F9EFE4"/>
<path d="M161.221 138.335C161.476 141.183 161.211 146.529 160.929 149.082Z" fill="#F9EFE4"/>
<path d="M168.007 138.472C168.278 142.003 168.278 145.852 168.007 149.384Z" fill="#F9EFE4"/>
<path d="M171.442 138.283C171.711 141.781 171.711 145.583 171.442 149.081L171.442 149.082" fill="#F9EFE4"/>
<path d="M174.582 137.967C174.85 141.372 174.85 145.112 174.582 148.518Z" fill="#F9EFE4"/>
<path d="M177.562 137.477C177.83 140.723 177.83 144.439 177.562 147.685Z" fill="#F9EFE4"/>
<path d="M180.137 136.861C180.408 140.109 180.408 143.373 180.137 146.62Z" fill="#F9EFE4"/>
<path fill-rule="evenodd" clip-rule="evenodd" d="M182.839 134.814C182.839 134.864 182.835 134.913 182.826 134.962C182.83 134.912 182.835 134.863 182.839 134.814ZM174.582 137.967C174.588 137.966 174.594 137.965 174.6 137.964C174.636 137.959 174.672 137.955 174.708 137.95M149.076 134.959C149.067 134.911 149.063 134.863 149.063 134.814C149.067 134.862 149.071 134.911 149.076 134.959Z" fill="#F9EFE4"/>
<path d="M171.442 149.081C178.074 148.216 182.839 145.904 182.839 143.809C182.58 141.019 182.575 137.768 182.826 134.962C182.595 136.229 179.401 137.331 174.708 137.95C174.672 137.955 174.636 137.959 174.6 137.964C174.594 137.965 174.588 137.966 174.582 137.967C173.596 138.094 172.545 138.2 171.442 138.283C171.711 141.781 171.711 145.583 171.442 149.081Z" fill="#F9EFE4"/>
<path d="M164.542 149.406C165.008 149.423 165.478 149.432 165.951 149.432C166.647 149.432 167.333 149.415 168.007 149.384C169.195 149.327 170.344 149.224 171.442 149.081C171.711 145.583 171.711 141.781 171.442 138.283C169.721 138.411 167.873 138.481 165.951 138.481C164.309 138.481 162.722 138.43 161.221 138.335C160.191 138.27 159.201 138.184 158.263 138.08C158.163 138.069 158.064 138.057 157.966 138.046C155.48 137.756 153.367 137.334 151.824 136.824C150.192 136.284 149.199 135.646 149.076 134.959C149.319 137.805 148.906 140.469 148.639 143.322C148.639 145.827 155.834 149.082 164.542 149.406Z" fill="#F9EFE4"/>
<path d="M179.309 132.571C181.52 133.19 182.839 133.968 182.839 134.814M182.839 134.814C182.839 134.864 182.835 134.913 182.826 134.962M182.839 134.814C182.835 134.863 182.83 134.912 182.826 134.962M165.951 138.481C163.182 138.481 160.569 138.336 158.263 138.08M165.951 138.481C169.112 138.481 172.07 138.292 174.6 137.964M165.951 138.481C167.873 138.481 169.721 138.411 171.442 138.283M165.951 138.481C164.309 138.481 162.722 138.43 161.221 138.335M149.063 134.814C149.063 133.968 150.382 133.19 152.602 132.567M149.063 134.814C149.063 134.863 149.067 134.911 149.076 134.959M149.063 134.814C149.067 134.862 149.071 134.911 149.076 134.959M165.951 149.432C167.873 149.432 169.721 149.305 171.442 149.081M165.951 149.432C165.478 149.432 165.008 149.423 164.542 149.406M165.951 149.432C166.647 149.432 167.333 149.415 168.007 149.384M151.824 136.824C152.095 139.725 151.764 143.353 151.493 146.254M151.824 136.824C153.367 137.334 155.48 137.756 157.966 138.046M151.824 136.824C150.192 136.284 149.199 135.646 149.076 134.959M164.54 138.481C164.811 142.118 164.811 145.769 164.542 149.406M164.54 149.428C164.541 149.42 164.542 149.413 164.542 149.406M154.863 137.58C155.118 140.428 154.845 145.021 154.554 147.574M157.966 138.046C158.221 140.894 157.793 145.885 157.511 148.437M157.966 138.046C158.064 138.057 158.163 138.069 158.263 138.08M161.221 138.335C161.476 141.183 161.211 146.529 160.929 149.082M161.221 138.335C160.191 138.27 159.201 138.184 158.263 138.08M168.007 138.472C168.278 142.003 168.278 145.852 168.007 149.384M168.007 149.384C169.195 149.327 170.344 149.224 171.442 149.081M171.442 138.283C172.545 138.2 173.596 138.094 174.582 137.967M171.442 138.283C171.711 141.781 171.711 145.583 171.442 149.081M171.442 149.082L171.442 149.081M174.582 137.967C174.85 141.372 174.85 145.112 174.582 148.518M174.582 137.967C174.588 137.966 174.594 137.965 174.6 137.964M177.562 137.477C177.83 140.723 177.83 144.439 177.562 147.685M180.137 136.861C180.408 140.109 180.408 143.373 180.137 146.62M182.826 134.962C182.575 137.768 182.58 141.019 182.839 143.809C182.839 145.904 178.074 148.216 171.442 149.081M182.826 134.962C182.595 136.229 179.401 137.331 174.708 137.95C174.672 137.955 174.636 137.959 174.6 137.964M158.263 138.08C152.987 137.493 149.32 136.321 149.076 134.959M149.076 134.959C149.319 137.805 148.906 140.469 148.639 143.322C148.639 145.827 155.834 149.082 164.542 149.406" stroke="#050504" stroke-width="1.16305" stroke-linecap="round" stroke-linejoin="round"/>
<path d="M153.189 136.725L153.28 132.403C152.135 132.489 149.322 133.43 149.322 134.678C149.322 135.926 152.12 136.638 153.189 136.725Z" fill="#050504"/>
<path d="M178.667 136.725L178.643 132.63C179.789 132.717 182.307 133.43 182.307 134.678C182.307 135.926 179.736 136.638 178.667 136.725Z" fill="#050504"/>
<path d="M202.016 85.5687C203.213 85.6354 204.547 84.0434 204.463 82.5492C204.463 81.5264 204.463 81.2151 204.463 80.1967L204.41 78.6358C204.362 78.1911 204.366 77.9599 204.305 77.5685C204.27 77.12 204.205 76.6742 204.111 76.2344C202.79 70.0086 199.467 65.0369 194.563 61.1636C189.659 57.2902 184.126 55.3246 177.998 54.7332C172.06 54.1355 166.071 55.1422 160.645 57.6504C156.846 59.4615 153.309 61.7848 150.128 64.5566C150.173 64.7248 150.229 64.8898 150.296 65.0502C150.491 65.3792 150.551 65.7724 150.463 66.1456C150.375 66.5188 150.146 66.8424 149.825 67.0469C146.785 69.5699 144.128 72.5306 141.941 75.8342C139.44 79.4294 137.811 83.5683 137.186 87.9167C137.072 88.7794 136.544 89.0062 136.368 89.8689C136.223 90.6119 136.145 91.3664 136.134 92.1235C136.046 94.6405 136.513 97.0997 136.856 99.5723C137.494 104.202 138.784 108.591 141.346 112.54C143.455 115.79 144.771 117.938 146.897 121.176C147.883 122.749 148.979 124.248 150.177 125.663C150.723 126.254 152.241 127.522 153.064 127.104C153.042 124.916 153.161 122.559 153.064 120.068C150.815 118.507 148.428 116.641 146.681 114.523C142.028 107.114 141.183 104.148 141.337 98.585C141.654 93.6933 145.445 91.0251 149.644 91.7144C150.92 91.9655 152.11 92.7595 153.064 93.651C154.019 94.5425 154.477 95.4984 154.825 96.7639C155.206 98.0775 155.472 99.62 155.486 100.989C156.397 102.501 158.259 101.333 159.813 100.537C160.603 100.154 161.342 99.673 162.014 99.1053C166.914 94.7695 168.52 86.7071 167.433 79.6853C173.094 83.9455 198.534 85.3686 202.016 85.5687Z" fill="#050504"/>
<path d="M152.29 56.6765C152.177 58.0539 151.778 59.3918 151.119 60.6032C150.582 60.3542 150.115 60.5766 149.627 60.8033C146.231 62.4172 143.308 64.8933 141.144 67.9897C136.944 73.7708 133.7 79.9388 133.911 87.4097C133.946 88.5749 134.188 89.6332 135.183 90.3359C134.88 91.7678 134.937 93.2664 134.483 94.6717C133.251 98.5006 130.83 101.195 126.894 102.12C122.849 103.072 119.094 100.342 118.169 95.9613C117.959 95.1925 117.917 94.3868 118.046 93.6C118.156 93.0974 118.02 92.9018 117.496 92.9151C116.561 92.9266 115.629 92.8054 114.727 92.5549C111.5 91.7055 110.008 89.2908 109.299 86.258C108.959 84.9724 108.888 83.6292 109.091 82.3144C109.294 80.9995 109.767 79.7421 110.479 78.6225C110.8 78.1155 110.615 77.8487 110.312 77.4796C108.489 75.2561 107.424 72.7035 107.508 69.7996C107.635 65.5527 111.949 61.586 116.171 61.7194C117.395 61.7595 117.399 61.7595 117.434 60.581C117.571 55.9961 119.904 52.8477 123.795 50.762C126.17 49.3989 128.905 48.8146 131.622 49.09C131.741 49.09 131.877 49.09 131.97 49.1255C133.035 49.7659 133.775 49.2412 134.637 48.5697C136.459 47.2226 138.603 46.3892 140.849 46.1549C140.981 46.3017 141.091 46.2617 141.197 46.1238C143.503 45.9281 145.709 46.2216 147.751 47.4268C151.004 49.339 152.228 52.3452 152.321 55.9739C152.227 56.0643 152.171 56.1879 152.165 56.3189C152.159 56.45 152.204 56.5781 152.29 56.6765Z" fill="#050504"/>
<path d="M202.016 85.5687C203.213 85.6354 204.547 84.0434 204.463 82.5492C204.463 81.5264 204.463 81.2151 204.463 80.1967L204.41 78.6358C204.362 78.1911 204.366 77.9599 204.305 77.5685C204.27 77.12 204.205 76.6742 204.111 76.2344C202.79 70.0086 199.467 65.0369 194.563 61.1636C189.659 57.2902 184.126 55.3246 177.998 54.7332C172.06 54.1355 166.071 55.1422 160.645 57.6504C156.846 59.4615 153.309 61.7848 150.128 64.5566C150.173 64.7248 150.229 64.8898 150.296 65.0502C150.491 65.3792 150.551 65.7724 150.463 66.1456C150.375 66.5188 150.146 66.8424 149.825 67.0469C146.785 69.5699 144.128 72.5306 141.941 75.8342C139.44 79.4294 137.811 83.5683 137.186 87.9167C137.072 88.7794 136.544 89.0062 136.368 89.8689C136.223 90.6119 136.145 91.3664 136.134 92.1235C136.046 94.6405 136.513 97.0997 136.856 99.5723C137.494 104.202 138.784 108.591 141.346 112.54C143.455 115.79 144.771 117.938 146.897 121.176C147.883 122.749 148.979 124.248 150.177 125.663C150.723 126.254 152.241 127.522 153.064 127.104C153.042 124.916 153.161 122.559 153.064 120.068C150.815 118.507 148.428 116.641 146.681 114.523C142.028 107.114 141.183 104.148 141.337 98.585C141.654 93.6933 145.445 91.0251 149.644 91.7144C150.92 91.9655 152.11 92.7595 153.064 93.651C154.019 94.5425 154.477 95.4984 154.825 96.7639C155.206 98.0775 155.472 99.62 155.486 100.989C156.397 102.501 158.259 101.333 159.813 100.537C160.603 100.154 161.342 99.673 162.014 99.1053C166.914 94.7695 168.52 86.7071 167.433 79.6853C173.094 83.9455 198.534 85.3686 202.016 85.5687Z" stroke="black" stroke-width="1.16305" stroke-linecap="round" stroke-linejoin="round"/>
<path d="M152.29 56.6765C152.177 58.0539 151.778 59.3918 151.119 60.6032C150.582 60.3542 150.115 60.5766 149.627 60.8033C146.231 62.4172 143.308 64.8933 141.144 67.9897C136.944 73.7708 133.7 79.9388 133.911 87.4097C133.946 88.5749 134.188 89.6332 135.183 90.3359C134.88 91.7678 134.937 93.2664 134.483 94.6717C133.251 98.5006 130.83 101.195 126.894 102.12C122.849 103.072 119.094 100.342 118.169 95.9613C117.959 95.1925 117.917 94.3868 118.046 93.6C118.156 93.0974 118.02 92.9018 117.496 92.9151C116.561 92.9266 115.629 92.8054 114.727 92.5549C111.5 91.7055 110.008 89.2908 109.299 86.258C108.959 84.9724 108.888 83.6292 109.091 82.3144C109.294 80.9995 109.767 79.7421 110.479 78.6225C110.8 78.1155 110.615 77.8487 110.312 77.4796C108.489 75.2561 107.424 72.7035 107.508 69.7996C107.635 65.5527 111.949 61.586 116.171 61.7194C117.395 61.7595 117.399 61.7595 117.434 60.581C117.571 55.9961 119.904 52.8477 123.795 50.762C126.17 49.3989 128.905 48.8146 131.622 49.09C131.741 49.09 131.877 49.09 131.97 49.1255C133.035 49.7659 133.775 49.2412 134.637 48.5697C136.459 47.2226 138.603 46.3892 140.849 46.1549C140.981 46.3017 141.091 46.2617 141.197 46.1238C143.503 45.9281 145.709 46.2216 147.751 47.4268C151.004 49.339 152.228 52.3452 152.321 55.9739C152.227 56.0643 152.171 56.1879 152.165 56.3189C152.159 56.45 152.204 56.5781 152.29 56.6765Z" stroke="black" stroke-width="1.16305" stroke-linecap="round" stroke-linejoin="round"/>
<path d="M135.183 90.336C134.188 89.6156 133.946 88.5572 133.911 87.4099C133.7 79.9389 136.944 73.7843 141.144 67.9898C143.308 64.8934 146.231 62.4173 149.626 60.8035C150.115 60.5767 150.582 60.3588 151.119 60.6034C152.193 61.4928 152.752 62.7068 153.408 63.8719C153.445 64.0411 153.493 64.2075 153.553 64.37C153.735 64.7072 153.779 65.1028 153.676 65.4725C153.574 65.8423 153.332 66.1567 153.003 66.3489C149.858 68.7408 147.08 71.5878 144.758 74.7982C142.111 78.2851 140.315 82.3528 139.515 86.6717C139.365 87.5255 139.348 88.3971 139.136 89.2465C139.023 89.8497 138.728 90.4027 138.291 90.8296C137.23 91.0258 136.134 90.8517 135.183 90.336V90.336ZM136.152 85.4443V87.9124C136.139 88.0618 136.185 88.2102 136.28 88.3257C136.375 88.4413 136.51 88.5148 136.658 88.5305C136.984 88.5528 137.036 88.2459 137.023 87.9658C137.059 87.5047 137.136 87.0478 137.252 86.6005C137.567 84.0124 138.289 81.4917 139.392 79.134C141.951 73.7697 145.699 69.0725 150.344 65.4061C151.343 64.6012 151.387 64.3922 150.599 63.3783C150.392 63.107 150.238 63.0937 149.957 63.2627C148.611 64.017 147.346 64.9112 146.184 65.9309C143.543 68.3767 141.531 71.3384 139.81 74.4869C137.943 77.9155 136.354 81.4554 136.152 85.4621V85.4443Z" fill="#050504"/>
<path d="M136.152 85.4621C136.354 81.4598 137.943 77.9022 139.81 74.4958C141.531 71.3473 143.525 68.3856 146.184 65.9398C147.346 64.9201 148.611 64.0259 149.957 63.2716C150.238 63.1026 150.397 63.1159 150.599 63.3872C151.387 64.4011 151.343 64.6101 150.344 65.415C145.705 69.0804 141.962 73.7743 139.405 79.134C138.302 81.4917 137.58 84.0124 137.265 86.6005C137.149 87.0478 137.072 87.5047 137.037 87.9657C137.037 88.2459 136.997 88.5527 136.671 88.5305C136.525 88.5148 136.391 88.4425 136.297 88.3289C136.202 88.2153 136.155 88.0692 136.165 87.9213L136.152 85.4621Z" fill="white"/>
<path d="M186.874 98.0742C186.745 97.78 186.402 97.646 186.108 97.7749C185.814 97.9038 185.68 98.2467 185.809 98.5409L186.874 98.0742ZM187.209 109.865C186.916 109.996 186.784 110.34 186.915 110.633C187.047 110.927 187.391 111.058 187.684 110.927L187.209 109.865ZM165.896 88.0829C165.689 88.3285 165.72 88.6954 165.966 88.9023C166.212 89.1092 166.578 89.0778 166.785 88.8322L165.896 88.0829ZM176.253 84.1808L176.351 83.6076L176.347 83.607L176.253 84.1808ZM177.54 85.1264C177.841 85.2382 178.176 85.0847 178.288 84.7837C178.4 84.4826 178.246 84.1479 177.945 84.0361L177.54 85.1264ZM187.969 85.1851C187.732 85.4019 187.715 85.7698 187.932 86.0067C188.149 86.2436 188.517 86.2598 188.754 86.0429L187.969 85.1851ZM197.526 83.462L197.771 82.9344L197.77 82.9341L197.526 83.462ZM198.367 84.6406C198.623 84.834 198.988 84.7829 199.182 84.5265C199.375 84.2701 199.324 83.9055 199.067 83.7121L198.367 84.6406ZM186.341 98.3075C185.809 98.5409 185.809 98.5409 185.809 98.541C185.809 98.541 185.809 98.5411 185.809 98.5412C185.809 98.5415 185.809 98.5419 185.809 98.5424C185.81 98.5434 185.811 98.545 185.812 98.5471C185.813 98.5513 185.816 98.5575 185.82 98.5658C185.827 98.5824 185.838 98.6071 185.852 98.6394C185.88 98.704 185.921 98.7989 185.974 98.9201C186.079 99.1626 186.23 99.5103 186.411 99.9308C186.772 100.772 187.254 101.903 187.735 103.066C188.217 104.23 188.697 105.42 189.056 106.38C189.235 106.861 189.382 107.278 189.483 107.602C189.534 107.764 189.571 107.896 189.595 107.998C189.621 108.111 189.623 108.151 189.623 108.144H190.786C190.786 108.009 190.757 107.861 190.727 107.733C190.694 107.593 190.648 107.432 190.593 107.255C190.483 106.902 190.328 106.463 190.145 105.974C189.78 104.994 189.294 103.789 188.81 102.621C188.326 101.452 187.842 100.315 187.479 99.4715C187.298 99.0495 187.147 98.7003 187.041 98.4567C186.988 98.3348 186.946 98.2393 186.918 98.1742C186.904 98.1417 186.893 98.1167 186.885 98.0999C186.882 98.0915 186.879 98.0851 186.877 98.0808C186.876 98.0786 186.875 98.077 186.875 98.0759C186.875 98.0753 186.874 98.0749 186.874 98.0746C186.874 98.0745 186.874 98.0744 186.874 98.0743C186.874 98.0742 186.874 98.0742 186.341 98.3075ZM189.623 108.144C189.623 108.14 189.623 108.17 189.581 108.244C189.539 108.317 189.468 108.408 189.362 108.515C189.147 108.73 188.844 108.953 188.515 109.16C188.19 109.366 187.862 109.543 187.614 109.669C187.49 109.732 187.387 109.782 187.316 109.815C187.28 109.832 187.253 109.845 187.235 109.853C187.225 109.858 187.219 109.861 187.214 109.863C187.212 109.864 187.211 109.864 187.21 109.865C187.209 109.865 187.209 109.865 187.209 109.865C187.209 109.865 187.209 109.865 187.209 109.865C187.209 109.865 187.209 109.865 187.209 109.865C187.209 109.865 187.209 109.865 187.446 110.396C187.684 110.927 187.684 110.927 187.684 110.927C187.684 110.927 187.684 110.927 187.684 110.927C187.684 110.927 187.685 110.926 187.685 110.926C187.685 110.926 187.686 110.926 187.687 110.925C187.689 110.925 187.691 110.923 187.694 110.922C187.7 110.919 187.709 110.915 187.72 110.91C187.742 110.9 187.774 110.885 187.814 110.867C187.893 110.829 188.006 110.774 188.141 110.706C188.409 110.569 188.771 110.374 189.136 110.144C189.496 109.916 189.882 109.64 190.185 109.337C190.464 109.057 190.786 108.644 190.786 108.144H189.623ZM166.785 88.8322C169.285 85.8644 172.885 84.2184 176.159 84.7547L176.347 83.607C172.566 82.9876 168.585 84.8904 165.896 88.0829L166.785 88.8322ZM176.155 84.754C176.627 84.8348 177.091 84.9595 177.54 85.1264L177.945 84.0361C177.428 83.8441 176.894 83.7006 176.351 83.6076L176.155 84.754ZM188.754 86.0429C191.397 83.6228 194.679 82.7868 197.282 83.9899L197.77 82.9341C194.605 81.4712 190.831 82.5642 187.969 85.1851L188.754 86.0429ZM197.282 83.9896C197.665 84.1674 198.029 84.3856 198.367 84.6406L199.067 83.7121C198.664 83.4076 198.229 83.1469 197.771 82.9344L197.282 83.9896Z" fill="#050504"/>
<path d="M178.567 115.62C179.917 118.778 184.589 119.536 186.718 119.178" stroke="#050504" stroke-width="1.16305" stroke-miterlimit="10" stroke-linecap="round"/>
<path d="M176.066 100.21C177.477 100.21 178.62 98.6411 178.62 96.7063C178.62 94.7715 177.477 93.2031 176.066 93.2031C174.656 93.2031 173.513 94.7715 173.513 96.7063C173.513 98.6411 174.656 100.21 176.066 100.21Z" fill="#050504"/>
<path d="M177.747 95.4414C177.063 92.839 173.644 92.4341 171.172 94.5998" stroke="#050504" stroke-width="1.16305" stroke-linecap="round"/>
<path d="M196.045 98.9447C197.455 98.9447 198.599 97.3762 198.599 95.4415C198.599 93.5067 197.455 91.9382 196.045 91.9382C194.635 91.9382 193.491 93.5067 193.491 95.4415C193.491 97.3762 194.635 98.9447 196.045 98.9447Z" fill="#050504"/>
<path d="M197.725 94.1766C197.041 91.5742 193.623 91.1693 191.15 93.3349" stroke="#050504" stroke-width="1.16305" stroke-linecap="round"/>
</g>
</svg>
