<svg width="226" height="177" viewBox="0 0 226 177" fill="none" xmlns="http://www.w3.org/2000/svg">
<mask id="mask0" mask-type="alpha" maskUnits="userSpaceOnUse" x="0" y="0" width="226" height="177">
<rect y="0.114258" width="225.973" height="176.291" fill="#C4C4C4"/>
</mask>
<g mask="url(#mask0)">
<path d="M76.4919 119.379C73.0671 119.275 62.9056 116.032 60.8855 114.536Z" fill="#EB8682"/>
<path d="M77.9013 135.361C84.22 144.212 104.651 146.839 108.136 148.104C113.854 150.27 114.826 156.128 114.911 159.319C115.155 168.41 116.222 184.005 113.032 192.247" fill="#EB8682"/>
<path d="M77.9013 135.361C74.0678 128.451 76.4919 119.379 76.4919 119.379C76.4919 119.379 83.9193 119.733 86.8978 118.208C92.6245 115.74 99.427 106.71 99.3566 93.7816C99.1942 82.1389 96.7468 70.6429 92.1547 59.9523C88.0112 49.1856 62.2995 39.1223 42.9301 57.9273C42.9301 57.9273 32.4867 67.5187 38.5516 83.4586" fill="#EB8682"/>
<path d="M8.45651 192.247C5.69884 183.368 6.78406 160.022 7.18338 156.727C7.5827 153.433 9.12361 146.749 17.2839 144.715C20.8919 143.804 43.4844 140.133 48.0696 133.766" fill="#EB8682"/>
<path d="M49.1783 109.693C49.1783 109.693 41.5912 105.365 38.5657 96.3399C35.5403 87.315 38.5516 83.4586 38.5516 83.4586C40.9805 79.8194 50.644 78.9273 50.644 89.9063" fill="#EB8682"/>
<path d="M49.1783 109.693C49.7561 121.163 49.9018 126.426 48.0696 133.766Z" fill="#EB8682"/>
<path d="M77.9013 135.361C84.22 144.212 104.651 146.839 108.136 148.104C113.854 150.27 114.826 156.128 114.911 159.319C115.155 168.41 116.222 184.005 113.032 192.247H8.45651C5.69884 183.368 6.78406 160.022 7.18338 156.727C7.5827 153.433 9.12361 146.749 17.2839 144.715C20.8919 143.804 43.4844 140.133 48.0696 133.766C49.9018 126.426 49.7561 121.163 49.1783 109.693C49.1783 109.693 41.5912 105.365 38.5657 96.3399C35.5403 87.315 38.5516 83.4586 38.5516 83.4586C32.4867 67.5187 42.9301 57.9273 42.9301 57.9273C62.2995 39.1223 88.0112 49.1856 92.1547 59.9523C96.7468 70.6429 99.1942 82.1389 99.3566 93.7816C99.427 106.71 92.6245 115.74 86.8978 118.208C83.9193 119.733 76.4919 119.379 76.4919 119.379C76.4919 119.379 74.0678 128.451 77.9013 135.361Z" fill="#EB8682"/>
<path opacity="0.4" d="M76.3839 119.016C75.929 122.228 75.2244 126.948 76.3839 130.724C72.0854 129.7 59.9507 121.272 59.9507 114.428C65.26 116.511 70.7659 118.048 76.3839 119.016Z" fill="#050504"/>
<path d="M44.0889 86.1187C42.2567 86.619 41.0071 89.3991 42.4634 92.3964" stroke="#050504" stroke-width="1.41604" stroke-linecap="round"/>
<path d="M8.05413 188.47C5.2834 179.592 6.37375 156.246 6.77496 152.951C7.17617 149.657 8.72438 142.973 16.9233 140.938C20.5484 140.027 43.1106 136.62 47.7175 130.252" fill="#8CB2A5"/>
<path d="M8.05413 188.47C5.2834 179.592 6.37375 156.246 6.77496 152.951C7.17617 149.657 8.72438 142.973 16.9233 140.938C20.5484 140.027 43.1106 136.62 47.7175 130.252C47.7175 130.252 55.5053 134.028 62.5855 133.556L77.9265 131.668C84.2751 140.518 104.704 143.063 108.206 144.328C113.95 146.494 114.928 152.352 115.013 155.543C115.258 164.634 116.329 180.229 113.124 188.47H13.732H8.05413Z" fill="#8CB2A5"/>
<path d="M8.05413 188.47C5.2834 179.592 6.37375 156.246 6.77496 152.951C7.17617 149.657 8.72438 142.973 16.9233 140.938C20.5484 140.027 43.1106 136.62 47.7175 130.252" stroke="#050504" stroke-width="1.41604" stroke-linecap="round" stroke-linejoin="round"/>
<path d="M8.05413 188.47C5.2834 179.592 6.37375 156.246 6.77496 152.951C7.17617 149.657 8.72438 142.973 16.9233 140.938C20.5484 140.027 43.1106 136.62 47.7175 130.252C47.7175 130.252 55.5053 134.028 62.5855 133.556L77.9265 131.668C84.2751 140.518 104.704 143.063 108.206 144.328C113.95 146.494 114.928 152.352 115.013 155.543C115.258 164.634 116.329 180.229 113.124 188.47H13.732H8.05413Z" stroke="#050504" stroke-width="1.41604" stroke-linecap="round" stroke-linejoin="round"/>
<path d="M63.1018 136.624C65.3823 156.717 65.4741 167.982 63.1018 188.074" stroke="#050504" stroke-width="1.41604" stroke-linecap="round"/>
<path d="M76.038 126.712C76.038 130.795 69.5482 132.91 62.1375 132.91C54.7269 132.91 48.3972 130.795 48.3972 126.712C35.8794 136.011 42.3412 142.26 49.1477 142.558C56.1429 142.864 63.2468 136.124 63.2468 136.124C63.2468 136.124 68.3257 143.275 77.2562 142.567C86.6965 141.817 88.3482 133.599 76.5053 126.948" fill="white"/>
<path d="M76.038 126.712C76.038 130.795 69.5482 132.91 62.1375 132.91C54.7269 132.91 48.3972 130.795 48.3972 126.712C35.8794 136.011 42.3412 142.26 49.1477 142.558C56.1429 142.864 63.2468 136.124 63.2468 136.124C63.2468 136.124 68.3257 143.275 77.2562 142.567C86.6965 141.817 88.3482 133.599 76.5053 126.948" stroke="#050504" stroke-width="1.41604" stroke-linecap="round" stroke-linejoin="round"/>
<path d="M38.927 120.246C35.6393 120.769 32.309 120.953 28.9857 120.795C28.8892 120.79 28.7977 120.749 28.7277 120.681C28.6578 120.612 28.6141 120.52 28.6045 120.421C28.1023 115.249 27.7705 113.846 28.2548 108.499C28.6718 105.233 28.2951 83.4471 28.3803 80.8174C28.5014 79.7055 28.6853 76.2037 28.8287 75.5624C29.0126 74.672 29.0081 73.717 29.1292 72.8173C29.7435 68.2036 30.8152 63.6592 33.3398 59.8483C35.6088 56.425 36.1558 55.1608 39.0302 52.0051C39.927 51.1608 41.0749 49.9613 41.8507 49.1631C42.178 48.8263 43.0569 48.1435 43.3574 47.8298C46.6532 45.0016 50.1957 43.0962 54.1193 41.2691C59.9359 38.5387 66.3758 37.5259 72.7196 38.3441C78.6818 39.0121 84.3389 41.4017 89.0374 45.2369C93.822 49.2092 97.055 54.2796 98.3868 60.5634C98.4787 61.0125 98.5431 61.4671 98.5796 61.9245C98.6469 62.3258 98.6379 62.5611 98.6873 63.0271C98.6873 63.0271 103.62 111.074 101.472 112.601C99.324 114.128 89.0865 117.341 89.0865 117.341C89.0865 117.341 93.0325 114.024 94.6916 111.113C95.8661 109.003 96.8878 106.509 97.6063 104.192C99.4 98.5452 99.0771 90.2914 98.279 83.8923C97.5391 77.9545 97.0817 75.7353 95.5885 69.3593C93.7634 61.636 84.3918 58.2012 84.3918 58.2012C84.3918 58.2012 57.1282 80.1945 45.7654 80.3468C40.2005 80.4113 36.4025 83.3364 37.3441 91.9178C38.5011 98.7322 41.2588 102.852 42.4516 104.315C44.2257 106.547 46.3481 108.319 48.6578 109.953C48.7474 111.761 48.882 115.895 48.882 118.718" fill="#050504"/>
<path d="M83.9848 87.279C83.8279 86.9208 83.4103 86.7577 83.0521 86.9146C82.694 87.0715 82.5308 87.489 82.6877 87.8472L83.9848 87.279ZM84.1935 99.4582C83.8366 99.6178 83.6766 100.037 83.8362 100.394C83.9958 100.751 84.4145 100.911 84.7715 100.751L84.1935 99.4582ZM62.0443 76.8878C61.7924 77.1869 61.8306 77.6335 62.1297 77.8855C62.4287 78.1374 62.8754 78.0992 63.1273 77.8001L62.0443 76.8878ZM72.8695 72.907L72.9889 72.2091L72.984 72.2083L72.8695 72.907ZM74.1686 73.9861C74.5352 74.1222 74.9427 73.9354 75.0789 73.5689C75.215 73.2023 75.0282 72.7948 74.6616 72.6587L74.1686 73.9861ZM84.9536 73.8716C84.6652 74.1357 84.6454 74.5836 84.9095 74.872C85.1735 75.1604 85.6214 75.1801 85.9098 74.9161L84.9536 73.8716ZM94.9403 72.1612L95.2381 71.5189L95.2373 71.5185L94.9403 72.1612ZM95.7494 73.4675C96.0616 73.703 96.5056 73.6409 96.7411 73.3287C96.9765 73.0165 96.9144 72.5725 96.6022 72.3371L95.7494 73.4675ZM83.3362 87.5631C82.6877 87.8472 82.6877 87.8472 82.6878 87.8473C82.6878 87.8473 82.6878 87.8474 82.6879 87.8476C82.688 87.8478 82.6882 87.8482 82.6884 87.8488C82.6889 87.8498 82.6896 87.8515 82.6905 87.8536C82.6924 87.8579 82.6953 87.8644 82.699 87.873C82.7065 87.8902 82.7177 87.9158 82.7323 87.9493C82.7615 88.0162 82.8044 88.1146 82.8591 88.2404C82.9683 88.4918 83.1245 88.8524 83.3119 89.2885C83.6868 90.1609 84.1864 91.3343 84.6858 92.54C85.1856 93.747 85.6828 94.9806 86.0541 95.9751C86.2401 96.4733 86.3915 96.9035 86.4955 97.2368C86.5476 97.4038 86.5852 97.5386 86.6093 97.641C86.6365 97.7569 86.6355 97.7881 86.6355 97.7681H88.0516C88.0516 97.6158 88.0193 97.4517 87.9878 97.3175C87.9532 97.1696 87.9048 96.9995 87.8473 96.8152C87.7321 96.4459 87.5704 95.988 87.3807 95.4798C87.0007 94.4619 86.496 93.2103 85.994 91.9982C85.4915 90.7848 84.9893 89.6052 84.6129 88.7294C84.4246 88.2913 84.2677 87.929 84.1578 87.6761C84.1029 87.5496 84.0597 87.4505 84.0302 87.3829C84.0154 87.3491 84.0041 87.3232 83.9965 87.3057C83.9926 87.297 83.9897 87.2903 83.9878 87.2859C83.9868 87.2836 83.986 87.2819 83.9855 87.2808C83.9853 87.2802 83.9851 87.2798 83.985 87.2795C83.9849 87.2793 83.9849 87.2792 83.9848 87.2791C83.9848 87.2791 83.9848 87.279 83.3362 87.5631ZM86.6355 97.7681C86.6355 97.7338 86.6387 97.8354 86.3955 98.0789C86.1809 98.2938 85.8734 98.5203 85.5348 98.7343C85.2017 98.9448 84.8646 99.1268 84.6085 99.2571C84.4812 99.3219 84.3755 99.373 84.3025 99.4076C84.266 99.4249 84.2377 99.438 84.2191 99.4465C84.2098 99.4508 84.2029 99.454 84.1986 99.4559C84.1964 99.4569 84.1949 99.4576 84.194 99.458C84.1936 99.4581 84.1934 99.4583 84.1933 99.4583C84.1932 99.4583 84.1932 99.4583 84.1933 99.4583C84.1933 99.4583 84.1934 99.4583 84.1934 99.4583C84.1935 99.4582 84.1935 99.4582 84.4825 100.105C84.7715 100.751 84.7716 100.751 84.7717 100.751C84.7718 100.751 84.7719 100.751 84.772 100.751C84.7723 100.751 84.7725 100.75 84.7728 100.75C84.7734 100.75 84.7742 100.75 84.7752 100.749C84.7771 100.748 84.7797 100.747 84.7829 100.746C84.7894 100.743 84.7986 100.739 84.8102 100.733C84.8335 100.723 84.8667 100.707 84.9085 100.687C84.9919 100.648 85.1097 100.591 85.2506 100.519C85.5309 100.377 85.9092 100.173 86.2913 99.9313C86.6679 99.6933 87.0757 99.4018 87.3975 99.0795C87.6908 98.7858 88.0516 98.331 88.0516 97.7681H86.6355ZM63.1273 77.8001C65.704 74.7414 69.404 73.0568 72.7551 73.6057L72.984 72.2083C69.0158 71.5583 64.8514 73.5555 62.0443 76.8878L63.1273 77.8001ZM72.7501 73.6049C73.2336 73.6876 73.7085 73.8152 74.1686 73.9861L74.6616 72.6587C74.1191 72.4572 73.5592 72.3067 72.9889 72.2091L72.7501 73.6049ZM85.9098 74.9161C88.6327 72.4233 91.9929 71.5791 94.6432 72.8039L95.2373 71.5185C91.9025 69.9774 87.9434 71.1345 84.9536 73.8716L85.9098 74.9161ZM94.6424 72.8036C95.0337 72.985 95.4047 73.2075 95.7494 73.4675L96.6022 72.3371C96.1776 72.0168 95.7203 71.7425 95.2381 71.5189L94.6424 72.8036Z" fill="#050504"/>
<path d="M75.2703 105.524C76.6711 108.8 81.5179 109.587 83.7265 109.216" stroke="#050504" stroke-width="1.41604" stroke-miterlimit="10" stroke-linecap="round"/>
<path d="M72.6765 89.5361C74.1398 89.5361 75.3261 87.9089 75.3261 85.9016C75.3261 83.8943 74.1398 82.2671 72.6765 82.2671C71.2131 82.2671 70.0269 83.8943 70.0269 85.9016C70.0269 87.9089 71.2131 89.5361 72.6765 89.5361Z" fill="#050504"/>
<path d="M74.4194 84.5894C73.71 81.8895 70.1631 81.4694 67.598 83.7162" stroke="#050504" stroke-width="1.41604" stroke-linecap="round"/>
<path d="M93.4036 88.2238C94.867 88.2238 96.0533 86.5966 96.0533 84.5893C96.0533 82.582 94.867 80.9548 93.4036 80.9548C91.9403 80.9548 90.754 82.582 90.754 84.5893C90.754 86.5966 91.9403 88.2238 93.4036 88.2238Z" fill="#050504"/>
<path d="M95.1467 83.2773C94.4373 80.5773 90.8904 80.1573 88.3253 82.404" stroke="#050504" stroke-width="1.41604" stroke-linecap="round"/>
<path d="M176.393 110.613C172.848 110.505 162.333 107.149 160.242 105.601Z" fill="#F1CF73"/>
<path d="M177.851 127.152C184.39 136.311 205.533 139.03 209.141 140.339C215.057 142.581 216.064 148.643 216.151 151.945C216.404 161.353 217.508 177.492 214.206 186.021" fill="#F1CF73"/>
<path d="M177.851 127.152C173.884 120.001 176.393 110.613 176.393 110.613C176.393 110.613 184.079 110.979 187.161 109.401C193.088 106.847 200.127 97.5021 200.055 84.1229C199.887 72.0743 197.354 60.1774 192.602 49.114C188.314 37.972 161.705 27.5577 141.661 47.0185C141.661 47.0185 130.853 56.9442 137.129 73.44" fill="#F1CF73"/>
<path d="M105.985 186.021C103.131 176.833 104.254 152.673 104.667 149.264C105.081 145.854 106.675 138.937 115.12 136.832C118.854 135.889 142.234 132.091 146.979 125.501" fill="#F1CF73"/>
<path d="M148.127 100.589C148.127 100.589 140.275 96.11 137.144 86.7704C134.013 77.4308 137.129 73.44 137.129 73.44C139.643 69.6738 149.644 68.7506 149.644 80.1125" fill="#F1CF73"/>
<path d="M148.127 100.589C148.725 112.459 148.875 117.906 146.979 125.501Z" fill="#F1CF73"/>
<path d="M177.851 127.152C184.39 136.311 205.533 139.03 209.141 140.339C215.057 142.581 216.064 148.643 216.151 151.945C216.404 161.353 217.508 177.492 214.206 186.021H105.985C103.131 176.833 104.254 152.673 104.667 149.264C105.081 145.854 106.675 138.937 115.12 136.832C118.854 135.889 142.234 132.091 146.979 125.501C148.875 117.906 148.725 112.459 148.127 100.589C148.127 100.589 140.275 96.11 137.144 86.7704C134.013 77.4308 137.129 73.44 137.129 73.44C130.853 56.9442 141.661 47.0185 141.661 47.0185C161.705 27.5577 188.314 37.972 192.602 49.114C197.354 60.1774 199.887 72.0743 200.055 84.1229C200.127 97.5021 193.088 106.847 187.161 109.401C184.079 110.979 176.393 110.613 176.393 110.613C176.393 110.613 173.884 120.001 177.851 127.152Z" fill="#F1CF73"/>
<path opacity="0.4" d="M176.281 110.237C175.81 113.561 175.081 118.446 176.281 122.354C171.832 121.294 159.274 112.572 159.274 105.489C164.769 107.645 170.467 109.236 176.281 110.237Z" fill="#050504"/>
<path d="M142.859 76.1927C140.963 76.7105 139.67 79.5876 141.177 82.6894" stroke="#050504" stroke-width="1.28626" stroke-linecap="round"/>
<path d="M104.245 145.111C103.829 148.521 102.701 172.681 105.568 181.869H214.302C217.619 173.34 216.51 157.201 216.256 147.793C216.168 144.491 215.157 138.429 209.212 136.187C205.894 134.988 188.913 132.856 180.12 125.773L162.291 127.238L144.462 123.819C136.561 128.73 117.981 131.867 114.747 132.68C106.262 134.785 104.66 141.702 104.245 145.111Z" fill="#FAE5E3" stroke="#050504" stroke-width="1.28626" stroke-linecap="round" stroke-linejoin="round"/>
<path d="M157.704 133.847L144.081 125.255C145.623 122.069 146.682 118.671 147.222 115.173L163.59 124.517L176.818 116.604C177.556 120.356 178.665 123.511 180.203 125.978L168.871 132.631L163.59 124.517L157.704 133.847Z" fill="white" stroke="#050504" stroke-width="1.28626" stroke-linecap="round" stroke-linejoin="round"/>
<path d="M163.591 124.517L168.871 132.631C172.398 147.153 177.175 166.448 178.196 182.944L169.404 191.36L161.021 184.111C160.655 168.788 160.67 149.356 157.705 133.862L163.591 124.517Z" fill="#EB8682" stroke="#050504" stroke-width="1.28626" stroke-linecap="round" stroke-linejoin="round"/>
<path opacity="0.2" d="M163.591 124.508L168.236 131.639L158.447 136.06L157.705 133.847L163.591 124.508Z" fill="#050504"/>
<path d="M141.188 70.5732C145.848 70.0241 148.973 71.9101 150.228 74.8705C151.387 77.6304 150.964 82.6964 155.488 79.8984C159.595 77.363 156.287 69.1885 154.628 65.1585C164.187 63.3059 164.995 57.2228 164.995 57.2228C169.361 58.6839 178.121 56.0148 178.588 53.4745C183.139 55.1699 189.538 55.1784 194.095 53.4984C195.653 55.7187 195.019 57.2228 196.307 59.5564C204.394 57.169 208.967 42.4161 196.081 36.0894C197.557 29.1946 187.041 24.224 182.194 29.3092C181.17 21.3973 167.769 21.2875 165.918 27.1748C161.701 22.8107 148.127 24.1572 147.256 31.8876C141.246 29.0848 132.932 36.8964 134.399 43.7721C127.436 44.8369 126.484 47.8355 128.22 54.1335C121.873 60.0686 122.878 66.9777 128.701 71.2321C126.124 76.1931 132.62 83.1297 136.481 85.1017C134.076 75.3133 136.827 71.4708 141.188 70.5732Z" fill="#050504"/>
<path d="M184.065 77.4292C183.922 77.1039 183.543 76.9556 183.218 77.0982C182.892 77.2407 182.744 77.62 182.887 77.9453L184.065 77.4292ZM184.399 90.0789C184.075 90.2238 183.93 90.6042 184.075 90.9285C184.22 91.2527 184.6 91.3981 184.924 91.2531L184.399 90.0789ZM161.51 66.6974C161.281 66.9691 161.316 67.3748 161.587 67.6037C161.859 67.8325 162.265 67.7978 162.494 67.5261L161.51 66.6974ZM172.644 62.5201L172.752 61.8862L172.748 61.8855L172.644 62.5201ZM174.02 63.5529C174.353 63.6765 174.723 63.5069 174.846 63.1739C174.97 62.8409 174.8 62.4707 174.467 62.3471L174.02 63.5529ZM185.21 63.5845C184.948 63.8243 184.93 64.2311 185.17 64.4931C185.41 64.7551 185.816 64.773 186.078 64.5332L185.21 63.5845ZM195.484 61.7484L195.755 61.1649L195.754 61.1646L195.484 61.7484ZM196.376 63.0287C196.659 63.2426 197.062 63.1861 197.276 62.9026C197.49 62.619 197.434 62.2157 197.15 62.0018L196.376 63.0287ZM183.476 77.6873C182.887 77.9453 182.887 77.9453 182.887 77.9454C182.887 77.9455 182.887 77.9456 182.887 77.9457C182.887 77.946 182.887 77.9464 182.887 77.9469C182.888 77.9481 182.889 77.9497 182.889 77.952C182.891 77.9565 182.894 77.9632 182.898 77.9721C182.906 77.9899 182.918 78.0164 182.933 78.0511C182.963 78.1204 183.007 78.2223 183.064 78.3524C183.177 78.6128 183.339 78.986 183.533 79.4375C183.921 80.3405 184.438 81.5552 184.955 82.8034C185.472 84.0528 185.987 85.3305 186.372 86.3612C186.565 86.8774 186.722 87.3244 186.831 87.6716C186.885 87.8455 186.924 87.9873 186.95 88.096C186.978 88.2172 186.98 88.2579 186.98 88.248H188.266C188.266 88.1014 188.235 87.9399 188.202 87.8022C188.167 87.6521 188.118 87.4782 188.058 87.2886C187.94 86.9087 187.773 86.4366 187.577 85.9114C187.184 84.8594 186.663 83.5653 186.143 82.3113C185.624 81.056 185.104 79.8357 184.715 78.9296C184.52 78.4764 184.357 78.1015 184.244 77.8399C184.187 77.709 184.142 77.6065 184.112 77.5366C184.096 77.5017 184.085 77.4749 184.077 77.4568C184.073 77.4477 184.07 77.4409 184.068 77.4363C184.067 77.4339 184.066 77.4322 184.066 77.431C184.065 77.4304 184.065 77.43 184.065 77.4297C184.065 77.4295 184.065 77.4294 184.065 77.4293C184.065 77.4292 184.065 77.4292 183.476 77.6873ZM186.98 88.248C186.98 88.2392 186.982 88.2688 186.938 88.3457C186.894 88.4222 186.819 88.5191 186.705 88.633C186.476 88.8622 186.152 89.1007 185.799 89.3236C185.451 89.5435 185.1 89.7332 184.833 89.8688C184.7 89.9363 184.59 89.9896 184.514 90.0257C184.476 90.0437 184.446 90.0574 184.427 90.0664C184.417 90.0709 184.41 90.0743 184.405 90.0763C184.403 90.0774 184.401 90.0781 184.4 90.0785C184.4 90.0788 184.399 90.0789 184.399 90.0789C184.399 90.079 184.399 90.079 184.399 90.079C184.399 90.079 184.399 90.0789 184.399 90.0789C184.399 90.0789 184.399 90.0789 184.662 90.666C184.924 91.2531 184.925 91.2531 184.925 91.253C184.925 91.253 184.925 91.2529 184.925 91.2529C184.925 91.2528 184.925 91.2527 184.926 91.2525C184.926 91.2523 184.927 91.2519 184.928 91.2515C184.93 91.2506 184.933 91.2495 184.936 91.248C184.942 91.245 184.952 91.2407 184.964 91.2353C184.987 91.2243 185.022 91.2085 185.064 91.1882C185.15 91.1477 185.271 91.089 185.416 91.0153C185.705 90.8685 186.094 90.6589 186.486 90.411C186.873 90.1662 187.289 89.8686 187.615 89.5419C187.916 89.2411 188.266 88.7928 188.266 88.248H186.98ZM162.494 67.5261C165.175 64.3434 169.033 62.5804 172.54 63.1548L172.748 61.8855C168.68 61.2192 164.4 63.2662 161.51 66.6974L162.494 67.5261ZM172.536 63.154C173.041 63.2406 173.538 63.3741 174.02 63.5529L174.467 62.3471C173.911 62.1405 173.337 61.9862 172.752 61.8862L172.536 63.154ZM186.078 64.5332C188.913 61.938 192.428 61.0446 195.214 62.3322L195.754 61.1646C192.346 59.5897 188.287 60.7674 185.21 63.5845L186.078 64.5332ZM195.214 62.3318C195.624 62.5222 196.014 62.7558 196.376 63.0287L197.15 62.0018C196.716 61.6742 196.248 61.3936 195.755 61.1649L195.214 62.3318Z" fill="#050504"/>
<path d="M175.128 96.2748C176.578 99.665 181.594 100.48 183.879 100.095" stroke="#050504" stroke-width="1.28626" stroke-miterlimit="10" stroke-linecap="round"/>
<path d="M172.444 79.7292C173.958 79.7292 175.186 78.0452 175.186 75.968C175.186 73.8907 173.958 72.2067 172.444 72.2067C170.93 72.2067 169.702 73.8907 169.702 75.968C169.702 78.0452 170.93 79.7292 172.444 79.7292Z" fill="#050504"/>
<path d="M174.248 74.61C173.514 71.816 169.843 71.3812 167.188 73.7064" stroke="#050504" stroke-width="1.28626" stroke-linecap="round"/>
<path d="M193.894 78.3712C195.408 78.3712 196.636 76.6873 196.636 74.61C196.636 72.5327 195.408 70.8488 193.894 70.8488C192.379 70.8488 191.152 72.5327 191.152 74.61C191.152 76.6873 192.379 78.3712 193.894 78.3712Z" fill="#050504"/>
<path d="M195.698 73.2521C194.963 70.458 191.293 70.0233 188.638 72.3484" stroke="#050504" stroke-width="1.28626" stroke-linecap="round"/>
</g>
</svg>
