<svg width="332" height="512" viewBox="0 0 332 512" fill="none" xmlns="http://www.w3.org/2000/svg">
<mask id="mask0" mask-type="alpha" maskUnits="userSpaceOnUse" x="9" y="0" width="312" height="512">
<rect x="9" width="312" height="512" rx="24" fill="white"/>
</mask>
<g mask="url(#mask0)">
<path d="M134.98 91.4234L135.774 101.192L126.917 96.9948L134.98 91.4234Z" fill="#FFF129"/>
<path d="M264.849 476.593L265.082 491.679L251.9 484.338L264.849 476.593Z" fill="#51E5FF"/>
<path d="M166.861 23.5676L172.932 39.5134L156.087 36.7982L166.861 23.5676Z" fill="#ED33B9"/>
<path d="M314.763 87.064L300.893 108.294L289.442 85.6667L314.763 87.064Z" fill="#23CE6B"/>
<path d="M109.557 434.378L129.636 433.667L120.212 451.412L109.557 434.378Z" fill="#23CE6B"/>
<path d="M266.35 159.157L278.455 165.659L266.771 172.891L266.35 159.157Z" fill="#ED33B9"/>
<path d="M36.1287 262.33L31.3682 276.014L21.8977 265.05L36.1287 262.33Z" fill="#ED33B9"/>
<path d="M80.2831 45.797L65.1894 46.4495L72.1711 33.0518L80.2831 45.797Z" fill="#23CE6B"/>
<path d="M85.0012 172.001L94.4682 174.538L87.5379 181.468L85.0012 172.001Z" fill="#51E5FF"/>
<path d="M299.052 215.763L315.916 218.08L305.477 231.527L299.052 215.763Z" fill="#51E5FF"/>
<circle cx="35.7678" cy="159.768" r="3.76783" fill="#23CE6B"/>
<circle cx="169.559" cy="471.37" r="3.44436" fill="#FFF129"/>
<circle cx="275.709" cy="368.706" r="2.70628" fill="#FFF129"/>
<circle cx="197.114" cy="82.6495" r="4.42847" fill="#51E5FF"/>
<path fill-rule="evenodd" clip-rule="evenodd" d="M42.3626 79.2639L50.6265 71L53.7254 74.099L45.4617 82.3627L54.2422 91.1432L51.1433 94.2421L51.1433 94.2421L42.8794 102.506L39.7805 99.407L48.0443 91.1432L39.264 82.3628L42.3628 79.264L42.3626 79.2639Z" fill="#6E8EFF"/>
<path fill-rule="evenodd" clip-rule="evenodd" d="M71.2154 375L68.0204 372L56.5209 384.247L59.7159 387.247L68.2155 378.195L76.7353 386.194L79.7351 382.999L71.2153 375L71.2154 375ZM51.0008 373.052L59.5207 381.052L56.5208 384.247L48.0009 376.247L51.0008 373.052Z" fill="#6E8EFF"/>
<path fill-rule="evenodd" clip-rule="evenodd" d="M13.1017 460.915L13.1373 449.228L17.5199 449.241L17.4843 460.928L29.9015 460.966L29.8882 465.349L13.0884 465.297L13.1017 460.915ZM25.47 477.022L25.5057 465.335L29.8882 465.349L29.8526 477.035L25.47 477.022Z" fill="#6E8EFF"/>
<path fill-rule="evenodd" clip-rule="evenodd" d="M238.793 408.994L234.467 408.292L232.478 420.549L220.942 418.677L220.24 423.003L231.776 424.875L231.776 424.875L236.102 425.577L238.091 413.32L249.627 415.192L250.329 410.866L238.793 408.994Z" fill="#6E8EFF"/>
<path fill-rule="evenodd" clip-rule="evenodd" d="M300.802 309.34L304.911 307.816L300.592 296.174L311.549 292.109L310.025 288L299.067 292.065L299.067 292.065L294.959 293.589L299.278 305.231L288.321 309.296L289.845 313.405L300.802 309.34Z" fill="#6E8EFF"/>
<path fill-rule="evenodd" clip-rule="evenodd" d="M261.493 64.5675L250.17 61.6724L251.256 57.4264L262.579 60.3215L265.655 48.2912L269.901 49.3769L281.223 52.272L280.138 56.518L268.815 53.6229L265.739 65.6531L261.493 64.5675L261.493 64.5675Z" fill="#6E8EFF"/>
</g>
</svg>
